{
  "accessors": [
    {
      "bufferView": 2,
      "componentType": 5126,
      "count": 30892,
      "max": [
        0.440869003534317,
        0.8348140120506287,
        0.440869003534317
      ],
      "min": [
        -0.440869003534317,
        -0.039348799735307693,
        -0.440869003534317
      ],
      "type": "VEC3"
    },
    {
      "bufferView": 2,
      "byteOffset": 370704,
      "componentType": 5126,
      "count": 30892,
      "max": [
        1.0,
        1.0,
        1.0
      ],
      "min": [
        -1.0,
        -1.0,
        -1.0
      ],
      "type": "VEC3"
    },
    {
      "bufferView": 3,
      "componentType": 5126,
      "count": 30892,
      "max": [
        1.0,
        0.9994904398918152,
        1.0,
        1.0
      ],
      "min": [
        -1.0,
        -0.9994905591011047,
        -1.0,
        -1.0
      ],
      "type": "VEC4"
    },
    {
      "bufferView": 1,
      "componentType": 5126,
      "count": 30892,
      "max": [
        0.9985089898109436,
        0.9984909892082214
      ],
      "min": [
        0.0014912999467924237,
        0.0014912999467924237
      ],
      "type": "VEC2"
    },
    {
      "bufferView": 0,
      "componentType": 5125,
      "count": 49068,
      "type": "SCALAR"
    },
    {
      "bufferView": 2,
      "byteOffset": 741408,
      "componentType": 5126,
      "count": 5376,
      "max": [
        0.04700959846377373,
        0.017591100186109543,
        0.03844910115003586
      ],
      "min": [
        -0.047009699046611786,
        -1.0,
        -0.03837740048766136
      ],
      "type": "VEC3"
    },
    {
      "bufferView": 2,
      "byteOffset": 805920,
      "componentType": 5126,
      "count": 5376,
      "max": [
        0.9990431070327759,
        1.0,
        0.9999586343765259
      ],
      "min": [
        -0.9990431070327759,
        -1.0,
        -0.9999586343765259
      ],
      "type": "VEC3"
    },
    {
      "bufferView": 3,
      "byteOffset": 494272,
      "componentType": 5126,
      "count": 5376,
      "max": [
        0.9999967217445374,
        0.5550040602684021,
        0.9999633431434631,
        1.0
      ],
      "min": [
        -0.9999972581863403,
        -0.5411321520805359,
        -0.9999640583992004,
        1.0
      ],
      "type": "VEC4"
    },
    {
      "bufferView": 1,
      "byteOffset": 247136,
      "componentType": 5126,
      "count": 5376,
      "max": [
        0.9435330033302307,
        0.9610099792480469
      ],
      "min": [
        0.26018598675727844,
        0.16820399463176727
      ],
      "type": "VEC2"
    },
    {
      "bufferView": 0,
      "byteOffset": 196272,
      "componentType": 5125,
      "count": 27648,
      "type": "SCALAR"
    },
    {
      "bufferView": 2,
      "byteOffset": 870432,
      "componentType": 5126,
      "count": 27185,
      "max": [
        0.5326110124588013,
        1.0,
        0.5326120257377625
      ],
      "min": [
        -0.5326120257377625,
        -0.0365401990711689,
        -0.5326120257377625
      ],
      "type": "VEC3"
    },
    {
      "bufferView": 2,
      "byteOffset": 1196652,
      "componentType": 5126,
      "count": 27185,
      "max": [
        1.0,
        0.9999494552612305,
        1.0
      ],
      "min": [
        -1.0,
        -1.0,
        -1.0
      ],
      "type": "VEC3"
    },
    {
      "bufferView": 3,
      "byteOffset": 580288,
      "componentType": 5126,
      "count": 27185,
      "max": [
        0.9999477863311768,
        0.9999990463256836,
        0.9999404549598694,
        1.0
      ],
      "min": [
        -0.9999449849128723,
        -0.9997920393943787,
        -0.9999421834945679,
        -1.0
      ],
      "type": "VEC4"
    },
    {
      "bufferView": 1,
      "byteOffset": 290144,
      "componentType": 5126,
      "count": 27185,
      "max": [
        0.9608740210533142,
        0.9644740223884583
      ],
      "min": [
        0.0014912999467924237,
        0.0014912999467924237
      ],
      "type": "VEC2"
    },
    {
      "bufferView": 0,
      "byteOffset": 306864,
      "componentType": 5125,
      "count": 138870,
      "type": "SCALAR"
    },
    {
      "bufferView": 2,
      "byteOffset": 1522872,
      "componentType": 5126,
      "count": 1250,
      "max": [
        0.44312500953674316,
        0.81843501329422,
        0.44312500953674316
      ],
      "min": [
        -0.44312500953674316,
        -0.01802770048379898,
        -0.44312500953674316
      ],
      "type": "VEC3"
    },
    {
      "bufferView": 2,
      "byteOffset": 1537872,
      "componentType": 5126,
      "count": 1250,
      "max": [
        0.9842779040336609,
        1.0,
        0.9842779040336609
      ],
      "min": [
        -0.9842779040336609,
        -1.0,
        -0.9842779040336609
      ],
      "type": "VEC3"
    },
    {
      "bufferView": 3,
      "byteOffset": 1015248,
      "componentType": 5126,
      "count": 1250,
      "max": [
        0.9298505783081055,
        0.9805048108100891,
        0.9543177485466003,
        1.0
      ],
      "min": [
        -0.9947144985198975,
        -0.979766845703125,
        -0.9996899962425232,
        1.0
      ],
      "type": "VEC4"
    },
    {
      "bufferView": 1,
      "byteOffset": 507624,
      "componentType": 5126,
      "count": 1250,
      "max": [
        0.4127579927444458,
        0.8259270191192627
      ],
      "min": [
        0.0014912999467924237,
        0.0014912999467924237
      ],
      "type": "VEC2"
    },
    {
      "bufferView": 0,
      "byteOffset": 862344,
      "componentType": 5125,
      "count": 7296,
      "type": "SCALAR"
    }
  ],
  "asset": {
    "extras": {
      "author": "iedalton (https://sketchfab.com/iedalton)",
      "license": "CC-BY-4.0 (http://creativecommons.org/licenses/by/4.0/)",
      "source": "https://sketchfab.com/3d-models/underwater-mine-26309b5c2c8044ed8e520f09781c14e9",
      "title": "Underwater Mine"
    },
    "generator": "Sketchfab-12.66.0",
    "version": "2.0"
  },
  "bufferViews": [
    {
      "buffer": 0,
      "byteLength": 891528,
      "name": "floatBufferViews",
      "target": 34963
    },
    {
      "buffer": 0,
      "byteLength": 517624,
      "byteOffset": 891528,
      "byteStride": 8,
      "name": "floatBufferViews",
      "target": 34962
    },
    {
      "buffer": 0,
      "byteLength": 1552872,
      "byteOffset": 1409152,
      "byteStride": 12,
      "name": "floatBufferViews",
      "target": 34962
    },
    {
      "buffer": 0,
      "byteLength": 1035248,
      "byteOffset": 2962024,
      "byteStride": 16,
      "name": "floatBufferViews",
      "target": 34962
    }
  ],
  "buffers": [
    {
      "byteLength": 3997272,
      "uri": "scene.bin"
    }
  ],
  "images": [
    {
      "uri": "textures/Mine_baseColor.jpeg"
    },
    {
      "uri": "textures/Mine_metallicRoughness.png"
    },
    {
      "uri": "textures/Mine_normal.png"
    },
    {
      "uri": "textures/Pins_baseColor.jpeg"
    },
    {
      "uri": "textures/Pins_metallicRoughness.png"
    },
    {
      "uri": "textures/Pins_normal.png"
    },
    {
      "uri": "textures/Chain_baseColor.jpeg"
    },
    {
      "uri": "textures/Chain_metallicRoughness.png"
    },
    {
      "uri": "textures/Chain_normal.png"
    },
    {
      "uri": "textures/Bolt_baseColor.jpeg"
    },
    {
      "uri": "textures/Bolt_metallicRoughness.png"
    },
    {
      "uri": "textures/Bolt_normal.png"
    }
  ],
  "materials": [
    {
      "doubleSided": true,
      "name": "Mine",
      "normalTexture": {
        "index": 2
      },
      "occlusionTexture": {
        "index": 1
      },
      "pbrMetallicRoughness": {
        "baseColorTexture": {
          "index": 0
        },
        "metallicRoughnessTexture": {
          "index": 1
        }
      }
    },
    {
      "doubleSided": true,
      "name": "Pins",
      "normalTexture": {
        "index": 5
      },
      "occlusionTexture": {
        "index": 4
      },
      "pbrMetallicRoughness": {
        "baseColorTexture": {
          "index": 3
        },
        "metallicRoughnessTexture": {
          "index": 4
        }
      }
    },
    {
      "doubleSided": true,
      "name": "Chain",
      "normalTexture": {
        "index": 8
      },
      "occlusionTexture": {
        "index": 7
      },
      "pbrMetallicRoughness": {
        "baseColorTexture": {
          "index": 6
        },
        "metallicRoughnessTexture": {
          "index": 7
        }
      }
    },
    {
      "doubleSided": true,
      "name": "Bolt",
      "normalTexture": {
        "index": 11
      },
      "occlusionTexture": {
        "index": 10
      },
      "pbrMetallicRoughness": {
        "baseColorTexture": {
          "index": 9
        },
        "metallicRoughnessTexture": {
          "index": 10
        }
      }
    }
  ],
  "meshes": [
    {
      "name": "defaultMaterial",
      "primitives": [
        {
          "attributes": {
            "NORMAL": 1,
            "POSITION": 0,
            "TANGENT": 2,
            "TEXCOORD_0": 3
          },
          "indices": 4,
          "material": 3,
          "mode": 4
        }
      ]
    },
    {
      "name": "defaultMaterial",
      "primitives": [
        {
          "attributes": {
            "NORMAL": 6,
            "POSITION": 5,
            "TANGENT": 7,
            "TEXCOORD_0": 8
          },
          "indices": 9,
          "material": 2,
          "mode": 4
        }
      ]
    },
    {
      "name": "defaultMaterial",
      "primitives": [
        {
          "attributes": {
            "NORMAL": 11,
            "POSITION": 10,
            "TANGENT": 12,
            "TEXCOORD_0": 13
          },
          "indices": 14,
          "material": 1,
          "mode": 4
        }
      ]
    },
    {
      "name": "defaultMaterial",
      "primitives": [
        {
          "attributes": {
            "NORMAL": 16,
            "POSITION": 15,
            "TANGENT": 17,
            "TEXCOORD_0": 18
          },
          "indices": 19,
          "material": 0,
          "mode": 4
        }
      ]
    }
  ],
  "nodes": [
    {
      "children": [
        1
      ],
      "matrix": [
        1.0,
        0.0,
        0.0,
        0.0,
        0.0,
        2.220446049250313e-16,
        -1.0,
        0.0,
        0.0,
        1.0,
        2.220446049250313e-16,
        0.0,
        0.0,
        0.0,
        0.0,
        1.0
      ],
      "name": "Sketchfab_model"
    },
    {
      "children": [
        2,
        4,
        6,
        8
      ],
      "matrix": [
        1.0,
        0.0,
        0.0,
        0.0,
        0.0,
        -4.371139006309477e-08,
        0.999999999999999,
        0.0,
        0.0,
        -0.999999999999999,
        -4.371139006309477e-08,
        0.0,
        0.0,
        0.0,
        0.0,
        1.0
      ],
      "name": "Collada visual scene group"
    },
    {
      "children": [
        3
      ],
      "name": "Sphere.001"
    },
    {
      "mesh": 0,
      "name": "defaultMaterial"
    },
    {
      "children": [
        5
      ],
      "name": "Sphere.001"
    },
    {
      "mesh": 1,
      "name": "defaultMaterial"
    },
    {
      "children": [
        7
      ],
      "name": "Sphere.001"
    },
    {
      "mesh": 2,
      "name": "defaultMaterial"
    },
    {
      "children": [
        9
      ],
      "name": "Sphere.001"
    },
    {
      "mesh": 3,
      "name": "defaultMaterial"
    }
  ],
  "samplers": [
    {
      "magFilter": 9729,
      "minFilter": 9987,
      "wrapS": 10497,
      "wrapT": 10497
    }
  ],
  "scene": 0,
  "scenes": [
    {
      "name": "Sketchfab_Scene",
      "nodes": [
        0
      ]
    }
  ],
  "textures": [
    {
      "sampler": 0,
      "source": 0
    },
    {
      "sampler": 0,
      "source": 1
    },
    {
      "sampler": 0,
      "source": 2
    },
    {
      "sampler": 0,
      "source": 3
    },
    {
      "sampler": 0,
      "source": 4
    },
    {
      "sampler": 0,
      "source": 5
    },
    {
      "sampler": 0,
      "source": 6
    },
    {
      "sampler": 0,
      "source": 7
    },
    {
      "sampler": 0,
      "source": 8
    },
    {
      "sampler": 0,
      "source": 9
    },
    {
      "sampler": 0,
      "source": 10
    },
    {
      "sampler": 0,
      "source": 11
    }
  ]
}
